<svg xmlns="http://www.w3.org/2000/svg" width="550" height="354" viewBox="0 0 550 354">

  <defs>
    <style>
      text { font-family: system-ui, -apple-system, "Segoe UI", sans-serif; font-size: 12px; fill: #111827; }
      .shape-rect { fill: #ffffff; stroke: #9ca3af; stroke-width: 1; }
      .shape-entity { fill: #ffffff; stroke: #111827; stroke-width: 2; }
      .shape-circle { fill: #ffffff; stroke: #9ca3af; stroke-width: 1; }
      .shape-pill { fill: #ffffff; stroke: #9ca3af; stroke-width: 1; }
      .shape-db { fill: #ffffff; stroke: #9ca3af; stroke-width: 1; }
      .conn { stroke: #111827; stroke-width: 2; fill: none; }
    </style>
    <marker id="arrow-end" markerWidth="10" markerHeight="7" refX="10" refY="3.5"
            orient="auto" markerUnits="strokeWidth">
      <polygon points="0 0, 10 3.5, 0 7" fill="#111827"/>
    </marker>
    <marker id="arrow-start" markerWidth="10" markerHeight="7" refX="0" refY="3.5"
            orient="auto" markerUnits="strokeWidth">
      <polygon points="10 0, 0 3.5, 10 7" fill="#111827"/>
    </marker>
  </defs>
        
<rect class="shape-entity" x="118" y="40" width="220" height="132" />
<line x1="118" y1="68" x2="338" y2="68" stroke="#e5e7eb" stroke-width="1"/>
<text x="228" y="59" text-anchor="middle">Persona</text>
<text x="202.34375" y="88.5">id</text>
<text x="202.34375" y="113.5">nombre</text>
<text x="202.34375" y="138.5">apellidos</text>
<rect class="shape-entity" x="290" y="206" width="220" height="107" />
<line x1="290" y1="234" x2="510" y2="234" stroke="#e5e7eb" stroke-width="1"/>
<text x="400" y="225" text-anchor="middle">Profesor</text>
<text x="367.328125" y="254.5">id</text>
<text x="367.328125" y="279.5">asignaturas</text>
<rect class="shape-entity" x="40" y="207" width="220" height="107" />
<line x1="40" y1="235" x2="260" y2="235" stroke="#e5e7eb" stroke-width="1"/>
<text x="150" y="226" text-anchor="middle">alumno</text>
<text x="140.25" y="255.5">id</text>
<text x="140.25" y="280.5">Nia</text>
<path class="conn" d="M 194.67961165048544 172 L 177.0097087378641 207" marker-end="url(#arrow-end)" />
<path class="conn" d="M 301.9543973941368 172 L 340.0521172638436 206" marker-end="url(#arrow-end)" />
</svg>